
 
http://www.imdb.com/title/tt0882977/



Plot: A father goes undercover for the DEA in order to free his son who was imprisoned after being set up in drug deal. 



Director:
 Ric Roman Waugh

Writers:
 Justin Haythe, Ric Roman Waugh

Stars:
 Dwayne Johnson, Susan Sarandon, Jon Bernthal

Genres:
 Action | Drama | Thriller 

Country:
USA 



Format                                   : AVI
Format/Info                              : Audio Video Interleave
File size                                : 1.73 GiB
Duration                                 : 1h 51mn
Overall bit rate                         : 2 220 Kbps
Writing application                      : VirtualDubMod 1.5.10.3 | www.virtualdub-fr.org || (build 2550/release)
Writing library                          : VirtualDubMod build 2550/release

Video
ID                                       : 0
Format                                   : MPEG-4 Visual
Format profile                           : Advanced Simple@L5
Format settings, BVOP                    : 3
Format settings, QPel                    : No
Format settings, GMC                     : No warppoints
Format settings, Matrix                  : Default (MPEG)
Codec ID                                 : XVID
Codec ID/Hint                            : XviD
Duration                                 : 1h 51mn
Bit rate                                 : 1 763 Kbps
Width                                    : 720 pixels
Height                                   : 304 pixels
Display aspect ratio                     : 2.35:1
Frame rate                               : 23.976 fps
Color space                              : YUV
Chroma subsampling                       : 4:2:0
Bit depth                                : 8 bits
Scan type                                : Progressive
Compression mode                         : Lossy
Bits/(Pixel*Frame)                       : 0.336
Stream size                              : 1.38 GiB (79%)
Writing library                          : XviD 1.2.1 (UTC 2008-12-04)

Audio
ID                                       : 1
Format                                   : AC-3
Format/Info                              : Audio Coding 3
Mode extension                           : CM (complete main)
Format settings, Endianness              : Big
Codec ID                                 : 2000
Duration                                 : 1h 51mn
Bit rate mode                            : Constant
Bit rate                                 : 448 Kbps
Channel(s)                               : 6 channels
Channel positions                        : Front: L C R, Side: L R, LFE
Sampling rate                            : 48.0 KHz
Bit depth                                : 16 bits
Compression mode                         : Lossy
Stream size                              : 358 MiB (20%)
Alignment                                : Split accross interleaves
Interleave, duration                     : 42 ms (1.00 video frame)
Interleave, preload duration             : 500 ms




    	http://addpix.net/viewer.php?file=74746372226381919770.jpg
    	http://addpix.net/viewer.php?file=99300693464854948912.jpg
    	http://addpix.net/viewer.php?file=60498182471726784800.jpg
    	http://addpix.net/viewer.php?file=17904200931380186374.jpg
    	http://addpix.net/viewer.php?file=86670175079701993551.jpg